<svg xmlns="http://www.w3.org/2000/svg" width="16" height="19" viewBox="0 0 16 19"><g><g><g><path fill="#e2e5e7" d="M3.433 0C2.804 0 2.29.514 2.29 1.143v16c0 .628.514 1.143 1.143 1.143H14.86c.629 0 1.143-.515 1.143-1.143V4.57L11.433 0z"/></g><g><path fill="#b0b7bd" d="M12.573 4.571H16L11.43 0v3.429c0 .628.514 1.142 1.143 1.142z"/></g><g><path fill="#cad1d8" d="M15.999 7.999L12.57 4.57h3.429z"/></g><g><path fill="#50bee8" d="M13.714 14.856a.573.573 0 0 1-.571.571H.57A.573.573 0 0 1 0 14.856V9.14c0-.314.257-.571.571-.571h12.572c.314 0 .571.257.571.571z"/></g><g><g><path fill="#fff" d="M3.216 11.107c1.299 0 1.244 2.037 0 2.037h-.765v-2.037zm-1.05 2.605h1.086c2.001 0 2.048-3.162-.04-3.162H2.165c-.15 0-.315.119-.315.283v2.595c0 .2.165.284.315.284z"/></g><g><path fill="#fff" d="M8.04 12.117c0 .718-.562 1.084-1.087 1.084-.512 0-1.07-.366-1.07-1.084 0-.722.558-1.083 1.07-1.083.525 0 1.087.36 1.087 1.083zm.598 0c0-1.083-.836-1.636-1.635-1.677-.846 0-1.723.553-1.723 1.677 0 1.119.878 1.681 1.723 1.645.8 0 1.635-.562 1.635-1.645z"/></g><g><path fill="#fff" d="M9.17 12.11c0-.882.553-1.64 1.604-1.64.398 0 .713.119 1.046.407a.311.311 0 0 1 .014.443.31.31 0 0 1-.42-.014c-.187-.197-.38-.25-.64-.25-.703 0-1.041.497-1.041 1.055 0 .566.333 1.087 1.041 1.087.26 0 .503-.106.713-.293a.307.307 0 0 1 .42.055c.073.1.11.27-.05.43-.32.297-.704.357-1.084.357-1.105 0-1.603-.755-1.603-1.637z"/></g></g><g><path fill="#cad1d8" d="M13.147 15.431H2.29v.572h10.857a.573.573 0 0 0 .572-.572v-.571a.573.573 0 0 1-.572.571z"/></g></g></g></svg>