<svg xmlns="http://www.w3.org/2000/svg" width="20" height="22" viewBox="0 0 20 22"><g><g><g><path fill="#4b577b" d="M17.694 4.538c.75 0 1.36.61 1.36 1.361v13.618c0 .75-.61 1.361-1.36 1.361H6.81c-.75 0-1.361-.61-1.361-1.361V5.9c0-.751.61-1.362 1.36-1.362zm2.279 14.979V5.9a2.272 2.272 0 0 0-2.27-2.27H6.81A2.272 2.272 0 0 0 4.54 5.9v13.617a2.272 2.272 0 0 0 2.27 2.269h10.893a2.272 2.272 0 0 0 2.27-2.27z"/></g><g><path fill="#4b577b" d="M3.177 19.064H2.27A2.272 2.272 0 0 1 0 16.794V2.27A2.272 2.272 0 0 1 2.27 0h10.893a2.272 2.272 0 0 1 2.27 2.27.454.454 0 0 1-.908 0c0-.751-.611-1.362-1.362-1.362H2.27c-.75 0-1.361.61-1.361 1.361v14.525c0 .751.61 1.362 1.361 1.362h.908a.454.454 0 0 1 0 .908z"/></g><g><path fill="#4b577b" d="M15.886 15.428H8.624a.454.454 0 0 1 0-.908h7.262a.454.454 0 0 1 0 .908z"/></g><g><path fill="#4b577b" d="M15.886 19.068H8.624a.454.454 0 0 1 0-.908h7.262a.454.454 0 0 1 0 .908z"/></g><g><path fill="#4b577b" d="M15.886 11.798H8.624a.454.454 0 0 1 0-.908h7.262a.454.454 0 0 1 0 .908z"/></g><g><path fill="#4b577b" d="M15.886 8.168H8.624a.454.454 0 0 1 0-.908h7.262a.454.454 0 0 1 0 .908z"/></g></g></g></svg>