<svg xmlns="http://www.w3.org/2000/svg" width="41" height="38" viewBox="0 0 41 38"><g><g><g><path fill="#4b577b" d="M38.625 33.5c0 .652-.53 1.182-1.183 1.182H3.548c-.652 0-1.183-.53-1.183-1.182V3.548c0-.652.53-1.183 1.183-1.183h11.457l.619 1.012 2.28 3.722 1.583 2.585c.215.35.597.565 1.008.565h16.947c.652 0 1.183.53 1.183 1.182V33.5zM33.904 3.942c.652 0 1.183.53 1.183 1.183v2.76H21.162L19.579 5.3l-.832-1.358zm3.548 3.944V5.125a3.552 3.552 0 0 0-3.548-3.548H17.299l-.62-1.012A1.183 1.183 0 0 0 15.671 0H3.548A3.552 3.552 0 0 0 0 3.548V33.51a3.552 3.552 0 0 0 3.548 3.548h33.904A3.552 3.552 0 0 0 41 33.51V11.434a3.552 3.552 0 0 0-3.548-3.548z"/></g></g></g></svg>