<svg xmlns="http://www.w3.org/2000/svg" width="16" height="19" viewBox="0 0 16 19"><g><g><g><path fill="#e2e5e7" d="M3.433 0C2.804 0 2.29.514 2.29 1.143v16c0 .628.514 1.143 1.143 1.143H14.86c.629 0 1.143-.515 1.143-1.143V4.57L11.433 0z"/></g><g><path fill="#b0b7bd" d="M12.573 4.571H16L11.43 0v3.429c0 .628.514 1.142 1.143 1.142z"/></g><g><path fill="#cad1d8" d="M15.999 7.999L12.57 4.57h3.429z"/></g><g><path fill="#f15642" d="M13.714 14.856a.573.573 0 0 1-.571.571H.57A.573.573 0 0 1 0 14.856V9.14c0-.314.257-.571.571-.571h12.572c.314 0 .571.257.571.571z"/></g><g><g><path fill="#fff" d="M3.855 11.085c.305 0 .547.263.547.58a.56.56 0 0 1-.547.549h-.76v-1.129zm-1.365-.26v2.573c0 .201.16.315.31.315.165 0 .293-.114.293-.315v-.603h.763c.594 0 1.129-.403 1.129-1.125 0-.762-.535-1.16-1.13-1.16H2.8a.314.314 0 0 0-.31.315z"/></g><g><path fill="#fff" d="M6.171 11.108h.765c1.3 0 1.244 2.037 0 2.037h-.765zm-.286 2.604h1.088c2.001 0 2.047-3.162-.041-3.162H5.885c-.15 0-.315.12-.315.283v2.596c0 .2.165.283.315.283z"/></g><g><path fill="#fff" d="M9.708 11.145v.726h1.165c.164 0 .329.165.329.324 0 .151-.165.274-.33.274H9.709v.96c0 .16-.114.283-.274.283-.201 0-.324-.123-.324-.283v-2.596c0-.164.123-.283.324-.283h1.604c.201 0 .32.12.32.283 0 .147-.119.311-.32.311h-1.33z"/></g></g><g><path fill="#cad1d8" d="M13.147 15.431H2.29v.572h10.857a.573.573 0 0 0 .572-.572v-.571a.573.573 0 0 1-.572.571z"/></g></g></g></svg>