<svg xmlns="http://www.w3.org/2000/svg" width="16" height="19" viewBox="0 0 16 19"><g><g><g><path fill="#e2e5e7" d="M3.433 0C2.804 0 2.29.514 2.29 1.143v16c0 .628.514 1.143 1.143 1.143H14.86c.629 0 1.143-.515 1.143-1.143V4.57L11.433 0z"/></g><g><path fill="#b0b7bd" d="M12.573 4.571H16L11.43 0v3.429c0 .628.514 1.142 1.143 1.142z"/></g><g><path fill="#cad1d8" d="M15.999 7.999L12.57 4.57h3.429z"/></g><g><path fill="#84bd5a" d="M13.714 14.856a.573.573 0 0 1-.571.571H.57A.573.573 0 0 1 0 14.856V9.14c0-.314.257-.571.571-.571h12.572c.314 0 .571.257.571.571z"/></g><g><g><path fill="#fff" d="M4.017 11.652l.795-.996c.237-.31.699.087.438.384-.273.324-.561.676-.836 1.037l.932 1.16c.252.343-.25.672-.497.334l-.841-1.079-.827 1.102c-.233.333-.75-.041-.49-.352l.919-1.165c-.288-.361-.567-.713-.845-1.037-.288-.343.247-.694.457-.374z"/></g><g><path fill="#fff" d="M5.91 10.829c0-.151.128-.279.288-.279.146 0 .27.129.27.279v2.289H7.71c.447 0 .457.598 0 .598H6.199c-.16 0-.288-.113-.288-.278v-2.61H5.91z"/></g><g><path fill="#fff" d="M8.573 11.24c.105-.886 1.443-1.045 2.074-.56.311.25-.018.648-.292.447-.339-.215-1.106-.315-1.202.159-.123.75 1.864.32 1.832 1.536-.032 1.16-1.713 1.187-2.344.667a.338.338 0 0 1-.064-.448c.119-.118.25-.16.407-.032.374.256 1.339.448 1.407-.201-.06-.676-1.96-.27-1.818-1.567z"/></g></g><g><path fill="#cad1d8" d="M13.147 15.431H2.29v.572h10.857a.573.573 0 0 0 .572-.572v-.571a.573.573 0 0 1-.572.571z"/></g></g></g></svg>